<svg xmlns="http://www.w3.org/2000/svg" viewBox="0 0 360 260" role="img" aria-labelledby="title desc">
  <title id="title">Wuyang guardian wave</title>
  <desc id="desc">An asymmetric wave rises from a long low sweep into one overhanging crest. A broad open curl and a single inner highlight keep the water fluid without a droplet frame or a closed spiral badge.</desc>
  <path d="M82 183C111 177 126 160 137 136C147 115 151 96 171 82C196 65 226 72 244 90C258 104 265 122 260 137C249 122 235 117 223 123C210 130 212 145 227 151C210 158 192 145 193 128C194 111 212 100 231 105C216 86 192 88 179 103C162 122 161 146 146 164C130 181 108 190 82 183Z" fill="#72afbe" fill-opacity="0.29" stroke="#b6dfe3" stroke-opacity="0.8" stroke-width="1.9" stroke-linejoin="round"/>
  <path d="M112 173C139 156 144 124 160 106C175 88 198 81 218 90" fill="none" stroke="#d3e9e8" stroke-opacity="0.52" stroke-width="1.9" stroke-linecap="round"/>
</svg>
