<svg xmlns="http://www.w3.org/2000/svg" xmlns:xlink="http://www.w3.org/1999/xlink" width="500" zoomAndPan="magnify" viewBox="0 0 375 374.999991" height="500" preserveAspectRatio="xMidYMid meet" version="1.0"><defs><g/><clipPath id="7b459a1641"><path d="M 32.917969 87.734375 L 342.082031 87.734375 L 342.082031 258.453125 L 32.917969 258.453125 Z M 32.917969 87.734375 " clip-rule="nonzero"/></clipPath><clipPath id="cd90f3dc7a"><path d="M 0.917969 0.734375 L 310.082031 0.734375 L 310.082031 171.453125 L 0.917969 171.453125 Z M 0.917969 0.734375 " clip-rule="nonzero"/></clipPath><clipPath id="bc40d0efc2"><rect x="0" width="311" y="0" height="172"/></clipPath><clipPath id="c598f60f27"><path d="M 53.460938 170.007812 L 322.25 170.007812 L 322.25 178.546875 L 53.460938 178.546875 Z M 53.460938 170.007812 " clip-rule="nonzero"/></clipPath><clipPath id="e9400f91b0"><path d="M 0.460938 0.0078125 L 269.25 0.0078125 L 269.25 8.546875 L 0.460938 8.546875 Z M 0.460938 0.0078125 " clip-rule="nonzero"/></clipPath><clipPath id="4c7122ba67"><rect x="0" width="270" y="0" height="9"/></clipPath><clipPath id="02ecfe18de"><path d="M 32.917969 258.453125 L 342.082031 258.453125 L 342.082031 287.265625 L 32.917969 287.265625 Z M 32.917969 258.453125 " clip-rule="nonzero"/></clipPath><clipPath id="0004bbee66"><path d="M 0.917969 0.453125 L 310.082031 0.453125 L 310.082031 29.265625 L 0.917969 29.265625 Z M 0.917969 0.453125 " clip-rule="nonzero"/></clipPath><clipPath id="94a2755f25"><rect x="0" width="311" y="0" height="30"/></clipPath><clipPath id="cfdb431ce9"><rect x="0" width="273" y="0" height="91"/></clipPath><clipPath id="670d3d03b8"><rect x="0" width="195" y="0" height="90"/></clipPath><clipPath id="37108b0af0"><rect x="0" width="258" y="0" height="29"/></clipPath><clipPath id="27a678cc04"><path d="M 0.121094 2 L 5 2 L 5 11 L 0.121094 11 Z M 0.121094 2 " clip-rule="nonzero"/></clipPath><clipPath id="0c8347ecc3"><rect x="0" width="37" y="0" height="14"/></clipPath></defs><g clip-path="url(#7b459a1641)"><g transform="matrix(1, 0, 0, 1, 32, 87)"><g clip-path="url(#bc40d0efc2)"><g clip-path="url(#cd90f3dc7a)"><path fill="#2a2a2a" d="M 0.917969 0.734375 L 310.347656 0.734375 L 310.347656 171.453125 L 0.917969 171.453125 Z M 0.917969 0.734375 " fill-opacity="1" fill-rule="nonzero"/></g></g></g></g><g clip-path="url(#c598f60f27)"><g transform="matrix(1, 0, 0, 1, 53, 170)"><g clip-path="url(#4c7122ba67)"><g clip-path="url(#e9400f91b0)"><path fill="#f4c320" d="M 0.460938 0.0078125 L 269.25 0.0078125 L 269.25 8.546875 L 0.460938 8.546875 Z M 0.460938 0.0078125 " fill-opacity="1" fill-rule="nonzero"/></g></g></g></g><g clip-path="url(#02ecfe18de)"><g transform="matrix(1, 0, 0, 1, 32, 258)"><g clip-path="url(#94a2755f25)"><g clip-path="url(#0004bbee66)"><path fill="#f4c320" d="M 0.917969 0.453125 L 310.054688 0.453125 L 310.054688 29.265625 L 0.917969 29.265625 Z M 0.917969 0.453125 " fill-opacity="1" fill-rule="nonzero"/></g></g></g></g><g transform="matrix(1, 0, 0, 1, 48, 91)"><g clip-path="url(#cfdb431ce9)"><g fill="#ffffff" fill-opacity="1"><g transform="translate(0.961161, 72.219515)"><g><path d="M 6.09375 -56.734375 L 51.953125 -56.734375 L 51.953125 -43.125 L 24.328125 -43.125 L 24.328125 -33.390625 L 48.0625 -33.390625 L 48.0625 -20.359375 L 24.328125 -20.359375 L 24.328125 0 L 6.09375 0 Z M 6.09375 -56.734375 "/></g></g></g><g fill="#ffffff" fill-opacity="1"><g transform="translate(55.956102, 72.219515)"><g><path d="M 59.9375 -39.328125 C 59.9375 -35.867188 59.003906 -32.734375 57.140625 -29.921875 C 55.273438 -27.117188 52.554688 -25.0625 48.984375 -23.75 L 61.59375 0 L 41.140625 0 L 31.078125 -20.703125 L 24.328125 -20.703125 L 24.328125 0 L 6.09375 0 L 6.09375 -56.734375 L 40.8125 -56.734375 C 44.882812 -56.734375 48.363281 -55.945312 51.25 -54.375 C 54.132812 -52.8125 56.300781 -50.695312 57.75 -48.03125 C 59.207031 -45.363281 59.9375 -42.460938 59.9375 -39.328125 Z M 41.390625 -38.59375 C 41.390625 -40.070312 40.894531 -41.304688 39.90625 -42.296875 C 38.914062 -43.285156 37.707031 -43.78125 36.28125 -43.78125 L 24.328125 -43.78125 L 24.328125 -33.3125 L 36.28125 -33.3125 C 37.707031 -33.3125 38.914062 -33.816406 39.90625 -34.828125 C 40.894531 -35.847656 41.390625 -37.101562 41.390625 -38.59375 Z M 41.390625 -38.59375 "/></g></g></g><g fill="#ffffff" fill-opacity="1"><g transform="translate(120.103123, 72.219515)"><g><path d="M 6.921875 0 L 6.921875 -56.734375 L 25.140625 -56.734375 L 25.140625 0 Z M 6.921875 0 "/></g></g></g><g fill="#ffffff" fill-opacity="1"><g transform="translate(152.17664, 72.219515)"><g><path d="M 6.09375 -56.734375 L 55.15625 -56.734375 L 55.15625 -43.125 L 24.328125 -43.125 L 24.328125 -35.296875 L 50.703125 -35.296875 L 50.703125 -22.265625 L 24.328125 -22.265625 L 24.328125 -13.609375 L 55.734375 -13.609375 L 55.734375 0 L 6.09375 0 Z M 6.09375 -56.734375 "/></g></g></g><g fill="#ffffff" fill-opacity="1"><g transform="translate(211.706396, 72.219515)"><g><path d="M 29.9375 -57.71875 C 37.1875 -57.71875 43.144531 -56.242188 47.8125 -53.296875 C 52.488281 -50.359375 54.882812 -46.003906 55 -40.234375 L 55 -39.25 L 37.921875 -39.25 L 37.921875 -39.578125 C 37.921875 -41.222656 37.316406 -42.59375 36.109375 -43.6875 C 34.898438 -44.789062 33.0625 -45.34375 30.59375 -45.34375 C 28.175781 -45.34375 26.320312 -44.984375 25.03125 -44.265625 C 23.738281 -43.554688 23.09375 -42.679688 23.09375 -41.640625 C 23.09375 -40.148438 23.96875 -39.046875 25.71875 -38.328125 C 27.476562 -37.617188 30.3125 -36.878906 34.21875 -36.109375 C 38.78125 -35.179688 42.53125 -34.207031 45.46875 -33.1875 C 48.414062 -32.164062 50.988281 -30.5 53.1875 -28.1875 C 55.382812 -25.882812 56.507812 -22.753906 56.5625 -18.796875 C 56.5625 -12.085938 54.289062 -7.113281 49.75 -3.875 C 45.21875 -0.632812 39.160156 0.984375 31.578125 0.984375 C 22.722656 0.984375 15.835938 -0.5 10.921875 -3.46875 C 6.003906 -6.4375 3.546875 -11.6875 3.546875 -19.21875 L 20.78125 -19.21875 C 20.78125 -16.351562 21.519531 -14.4375 23 -13.46875 C 24.488281 -12.507812 26.800781 -12.03125 29.9375 -12.03125 C 32.238281 -12.03125 34.144531 -12.273438 35.65625 -12.765625 C 37.164062 -13.265625 37.921875 -14.285156 37.921875 -15.828125 C 37.921875 -17.203125 37.082031 -18.234375 35.40625 -18.921875 C 33.738281 -19.609375 31.003906 -20.335938 27.203125 -21.109375 C 22.585938 -22.097656 18.769531 -23.128906 15.75 -24.203125 C 12.726562 -25.273438 10.085938 -27.046875 7.828125 -29.515625 C 5.578125 -31.992188 4.453125 -35.347656 4.453125 -39.578125 C 4.453125 -45.785156 6.851562 -50.359375 11.65625 -53.296875 C 16.46875 -56.242188 22.5625 -57.71875 29.9375 -57.71875 Z M 29.9375 -57.71875 "/></g></g></g></g></g><g transform="matrix(1, 0, 0, 1, 48, 171)"><g clip-path="url(#670d3d03b8)"><g fill="#f4c320" fill-opacity="1"><g transform="translate(1.093416, 71.563467)"><g><path d="M 33.140625 -57.71875 C 41.554688 -57.71875 48.207031 -55.613281 53.09375 -51.40625 C 57.988281 -47.207031 60.4375 -41.203125 60.4375 -33.390625 L 43.046875 -33.390625 C 43.046875 -36.691406 42.175781 -39.300781 40.4375 -41.21875 C 38.707031 -43.144531 36.25 -44.109375 33.0625 -44.109375 C 29.382812 -44.109375 26.675781 -42.953125 24.9375 -40.640625 C 23.207031 -38.335938 22.34375 -35.125 22.34375 -31 L 22.34375 -25.71875 C 22.34375 -21.65625 23.207031 -18.453125 24.9375 -16.109375 C 26.675781 -13.773438 29.332031 -12.609375 32.90625 -12.609375 C 36.414062 -12.609375 39.078125 -13.515625 40.890625 -15.328125 C 42.710938 -17.148438 43.625 -19.707031 43.625 -23 L 60.4375 -23 C 60.4375 -15.25 58.054688 -9.3125 53.296875 -5.1875 C 48.546875 -1.070312 41.828125 0.984375 33.140625 0.984375 C 23.472656 0.984375 16.148438 -1.488281 11.171875 -6.4375 C 6.191406 -11.382812 3.703125 -18.691406 3.703125 -28.359375 C 3.703125 -38.035156 6.191406 -45.347656 11.171875 -50.296875 C 16.148438 -55.242188 23.472656 -57.71875 33.140625 -57.71875 Z M 33.140625 -57.71875 "/></g></g></g><g fill="#f4c320" fill-opacity="1"><g transform="translate(65.240436, 71.563467)"><g><path d="M 62.578125 -22.84375 C 62.578125 -15.09375 60.128906 -9.179688 55.234375 -5.109375 C 50.347656 -1.046875 43.398438 0.984375 34.390625 0.984375 C 25.367188 0.984375 18.394531 -1.046875 13.46875 -5.109375 C 8.550781 -9.179688 6.09375 -15.09375 6.09375 -22.84375 L 6.09375 -56.734375 L 24.328125 -56.734375 L 24.328125 -23.09375 C 24.328125 -19.894531 25.175781 -17.347656 26.875 -15.453125 C 28.582031 -13.554688 31.054688 -12.609375 34.296875 -12.609375 C 37.546875 -12.609375 40.035156 -13.570312 41.765625 -15.5 C 43.492188 -17.425781 44.359375 -19.957031 44.359375 -23.09375 L 44.359375 -56.734375 L 62.578125 -56.734375 Z M 62.578125 -22.84375 "/></g></g></g><g fill="#f4c320" fill-opacity="1"><g transform="translate(133.922272, 71.563467)"><g><path d="M 37.921875 -56.734375 C 41.441406 -56.734375 44.578125 -55.921875 47.328125 -54.296875 C 50.078125 -52.671875 52.21875 -50.441406 53.75 -47.609375 C 55.289062 -44.785156 56.0625 -41.613281 56.0625 -38.09375 L 56.0625 -37.015625 C 56.0625 -33.503906 55.289062 -30.316406 53.75 -27.453125 C 52.21875 -24.597656 50.078125 -22.359375 47.328125 -20.734375 C 44.578125 -19.109375 41.441406 -18.296875 37.921875 -18.296875 L 24.328125 -18.296875 L 24.328125 0 L 6.09375 0 L 6.09375 -56.734375 Z M 24.328125 -31.578125 L 31.828125 -31.578125 C 33.753906 -31.578125 35.195312 -32.070312 36.15625 -33.0625 C 37.113281 -34.050781 37.59375 -35.398438 37.59375 -37.109375 L 37.59375 -37.765625 C 37.59375 -39.523438 37.113281 -40.882812 36.15625 -41.84375 C 35.195312 -42.800781 33.753906 -43.28125 31.828125 -43.28125 L 24.328125 -43.28125 Z M 24.328125 -31.578125 "/></g></g></g></g></g><g transform="matrix(1, 0, 0, 1, 64, 258)"><g clip-path="url(#37108b0af0)"><g fill="#2a2a2a" fill-opacity="1"><g transform="translate(1.084139, 22.064985)"><g><path d="M 9.625 0.265625 C 8.394531 0.265625 7.265625 0.0507812 6.234375 -0.375 C 5.210938 -0.800781 4.328125 -1.378906 3.578125 -2.109375 C 2.828125 -2.847656 2.242188 -3.710938 1.828125 -4.703125 C 1.410156 -5.703125 1.203125 -6.769531 1.203125 -7.90625 L 1.203125 -7.953125 C 1.203125 -9.085938 1.410156 -10.148438 1.828125 -11.140625 C 2.253906 -12.128906 2.84375 -13 3.59375 -13.75 C 4.34375 -14.5 5.234375 -15.085938 6.265625 -15.515625 C 7.304688 -15.953125 8.441406 -16.171875 9.671875 -16.171875 C 10.898438 -16.171875 12.023438 -15.953125 13.046875 -15.515625 C 14.078125 -15.085938 14.96875 -14.503906 15.71875 -13.765625 C 16.46875 -13.035156 17.050781 -12.171875 17.46875 -11.171875 C 17.882812 -10.179688 18.09375 -9.117188 18.09375 -7.984375 L 18.09375 -7.953125 C 18.09375 -6.816406 17.878906 -5.75 17.453125 -4.75 C 17.035156 -3.757812 16.453125 -2.890625 15.703125 -2.140625 C 14.953125 -1.390625 14.054688 -0.800781 13.015625 -0.375 C 11.984375 0.0507812 10.851562 0.265625 9.625 0.265625 Z M 9.671875 -2.953125 C 10.367188 -2.953125 11.007812 -3.078125 11.59375 -3.328125 C 12.1875 -3.585938 12.691406 -3.941406 13.109375 -4.390625 C 13.523438 -4.847656 13.847656 -5.375 14.078125 -5.96875 C 14.316406 -6.570312 14.4375 -7.21875 14.4375 -7.90625 L 14.4375 -7.953125 C 14.4375 -8.628906 14.316406 -9.269531 14.078125 -9.875 C 13.847656 -10.476562 13.515625 -11.003906 13.078125 -11.453125 C 12.648438 -11.910156 12.140625 -12.269531 11.546875 -12.53125 C 10.960938 -12.800781 10.320312 -12.9375 9.625 -12.9375 C 8.914062 -12.9375 8.269531 -12.804688 7.6875 -12.546875 C 7.101562 -12.296875 6.601562 -11.941406 6.1875 -11.484375 C 5.769531 -11.035156 5.441406 -10.507812 5.203125 -9.90625 C 4.972656 -9.3125 4.859375 -8.671875 4.859375 -7.984375 L 4.859375 -7.953125 C 4.859375 -7.265625 4.972656 -6.617188 5.203125 -6.015625 C 5.441406 -5.410156 5.773438 -4.878906 6.203125 -4.421875 C 6.640625 -3.972656 7.148438 -3.613281 7.734375 -3.34375 C 8.316406 -3.082031 8.960938 -2.953125 9.671875 -2.953125 Z M 9.671875 -2.953125 "/></g></g></g><g fill="#2a2a2a" fill-opacity="1"><g transform="translate(30.718179, 22.064985)"><g><path d="M 0.546875 -15.890625 L 4.40625 -15.890625 L 8.5625 -4.703125 L 12.71875 -15.890625 L 16.484375 -15.890625 L 10.0625 0.109375 L 6.96875 0.109375 Z M 0.546875 -15.890625 "/></g></g></g><g fill="#2a2a2a" fill-opacity="1"><g transform="translate(59.103431, 22.064985)"><g><path d="M 1.90625 -15.890625 L 13.890625 -15.890625 L 13.890625 -12.78125 L 5.375 -12.78125 L 5.375 -9.5625 L 12.875 -9.5625 L 12.875 -6.453125 L 5.375 -6.453125 L 5.375 -3.109375 L 14.015625 -3.109375 L 14.015625 0 L 1.90625 0 Z M 1.90625 -15.890625 "/></g></g></g><g fill="#2a2a2a" fill-opacity="1"><g transform="translate(85.672151, 22.064985)"><g><path d="M 1.90625 -15.890625 L 9.171875 -15.890625 C 11.179688 -15.890625 12.722656 -15.351562 13.796875 -14.28125 C 14.710938 -13.375 15.171875 -12.160156 15.171875 -10.640625 L 15.171875 -10.609375 C 15.171875 -9.316406 14.851562 -8.265625 14.21875 -7.453125 C 13.59375 -6.648438 12.773438 -6.054688 11.765625 -5.671875 L 15.640625 0 L 11.5625 0 L 8.15625 -5.078125 L 5.40625 -5.078125 L 5.40625 0 L 1.90625 0 Z M 8.9375 -8.171875 C 9.800781 -8.171875 10.460938 -8.375 10.921875 -8.78125 C 11.390625 -9.195312 11.625 -9.742188 11.625 -10.421875 L 11.625 -10.46875 C 11.625 -11.21875 11.378906 -11.78125 10.890625 -12.15625 C 10.410156 -12.539062 9.738281 -12.734375 8.875 -12.734375 L 5.40625 -12.734375 L 5.40625 -8.171875 Z M 8.9375 -8.171875 "/></g></g></g><g fill="#2a2a2a" fill-opacity="1"><g transform="translate(113.1037, 22.064985)"><g><path d="M 0.6875 -15.890625 L 4.421875 -15.890625 L 7.71875 -5.125 L 11.28125 -15.9375 L 14.28125 -15.9375 L 17.84375 -5.125 L 21.140625 -15.890625 L 24.796875 -15.890625 L 19.359375 0.109375 L 16.328125 0.109375 L 12.734375 -10.28125 L 9.15625 0.109375 L 6.109375 0.109375 Z M 0.6875 -15.890625 "/></g></g></g><g fill="#2a2a2a" fill-opacity="1"><g transform="translate(147.892087, 22.064985)"><g><path d="M 7.359375 -16 L 10.578125 -16 L 17.390625 0 L 13.734375 0 L 12.28125 -3.5625 L 5.5625 -3.5625 L 4.109375 0 L 0.546875 0 Z M 11.03125 -6.65625 L 8.921875 -11.8125 L 6.8125 -6.65625 Z M 11.03125 -6.65625 "/></g></g></g><g fill="#2a2a2a" fill-opacity="1"><g transform="translate(175.141841, 22.064985)"><g><path d="M 5.609375 -12.671875 L 0.765625 -12.671875 L 0.765625 -15.890625 L 13.9375 -15.890625 L 13.9375 -12.671875 L 9.109375 -12.671875 L 9.109375 0 L 5.609375 0 Z M 5.609375 -12.671875 "/></g></g></g><g fill="#2a2a2a" fill-opacity="1"><g transform="translate(200.529754, 22.064985)"><g><path d="M 9.359375 0.265625 C 8.191406 0.265625 7.109375 0.0546875 6.109375 -0.359375 C 5.109375 -0.785156 4.242188 -1.363281 3.515625 -2.09375 C 2.785156 -2.832031 2.21875 -3.703125 1.8125 -4.703125 C 1.40625 -5.703125 1.203125 -6.769531 1.203125 -7.90625 L 1.203125 -7.953125 C 1.203125 -9.085938 1.40625 -10.148438 1.8125 -11.140625 C 2.21875 -12.128906 2.785156 -13 3.515625 -13.75 C 4.242188 -14.5 5.113281 -15.085938 6.125 -15.515625 C 7.144531 -15.953125 8.265625 -16.171875 9.484375 -16.171875 C 10.234375 -16.171875 10.910156 -16.109375 11.515625 -15.984375 C 12.128906 -15.859375 12.6875 -15.691406 13.1875 -15.484375 C 13.6875 -15.273438 14.148438 -15.015625 14.578125 -14.703125 C 15.003906 -14.398438 15.394531 -14.070312 15.75 -13.71875 L 13.53125 -11.140625 C 12.90625 -11.703125 12.269531 -12.140625 11.625 -12.453125 C 10.988281 -12.773438 10.269531 -12.9375 9.46875 -12.9375 C 8.800781 -12.9375 8.179688 -12.804688 7.609375 -12.546875 C 7.046875 -12.296875 6.5625 -11.941406 6.15625 -11.484375 C 5.75 -11.035156 5.429688 -10.507812 5.203125 -9.90625 C 4.972656 -9.3125 4.859375 -8.671875 4.859375 -7.984375 L 4.859375 -7.953125 C 4.859375 -7.265625 4.972656 -6.617188 5.203125 -6.015625 C 5.429688 -5.410156 5.742188 -4.878906 6.140625 -4.421875 C 6.546875 -3.972656 7.03125 -3.613281 7.59375 -3.34375 C 8.164062 -3.082031 8.789062 -2.953125 9.46875 -2.953125 C 10.375 -2.953125 11.140625 -3.117188 11.765625 -3.453125 C 12.398438 -3.785156 13.023438 -4.238281 13.640625 -4.8125 L 15.875 -2.5625 C 15.457031 -2.125 15.03125 -1.726562 14.59375 -1.375 C 14.15625 -1.03125 13.675781 -0.734375 13.15625 -0.484375 C 12.632812 -0.234375 12.0625 -0.046875 11.4375 0.078125 C 10.820312 0.203125 10.128906 0.265625 9.359375 0.265625 Z M 9.359375 0.265625 "/></g></g></g><g fill="#2a2a2a" fill-opacity="1"><g transform="translate(228.642511, 22.064985)"><g><path d="M 1.90625 -15.890625 L 5.40625 -15.890625 L 5.40625 -9.609375 L 11.84375 -9.609375 L 11.84375 -15.890625 L 15.34375 -15.890625 L 15.34375 0 L 11.84375 0 L 11.84375 -6.375 L 5.40625 -6.375 L 5.40625 0 L 1.90625 0 Z M 1.90625 -15.890625 "/></g></g></g></g></g><g transform="matrix(1, 0, 0, 1, 285, 228)"><g clip-path="url(#0c8347ecc3)"><g clip-path="url(#27a678cc04)"><g fill="#ffffff" fill-opacity="1"><g transform="translate(0.277647, 10.958218)"><g><path d="M 4.671875 -8.15625 L 4.671875 -7.125 C 4.671875 -7 4.613281 -6.9375 4.5 -6.9375 L 1.90625 -6.9375 L 1.90625 -4.859375 L 3.890625 -4.859375 C 4.003906 -4.859375 4.0625 -4.800781 4.0625 -4.6875 L 4.0625 -3.65625 C 4.0625 -3.53125 4.003906 -3.46875 3.890625 -3.46875 L 1.90625 -3.46875 L 1.90625 -1.375 L 4.5 -1.375 C 4.613281 -1.375 4.671875 -1.316406 4.671875 -1.203125 L 4.671875 -0.171875 C 4.671875 -0.0546875 4.613281 0 4.5 0 L 0.671875 0 C 0.566406 0 0.515625 -0.0546875 0.515625 -0.171875 L 0.515625 -8.15625 C 0.515625 -8.269531 0.566406 -8.328125 0.671875 -8.328125 L 4.5 -8.328125 C 4.613281 -8.328125 4.671875 -8.269531 4.671875 -8.15625 Z M 4.671875 -8.15625 "/></g></g></g></g><g fill="#ffffff" fill-opacity="1"><g transform="translate(4.553298, 10.958218)"><g><path d="M 2.015625 -8.328125 L 3.1875 -8.328125 C 3.675781 -8.328125 4.046875 -8.195312 4.296875 -7.9375 C 4.554688 -7.6875 4.6875 -7.316406 4.6875 -6.828125 L 4.6875 -5.71875 C 4.6875 -5.613281 4.628906 -5.5625 4.515625 -5.5625 L 3.4375 -5.5625 C 3.320312 -5.5625 3.265625 -5.613281 3.265625 -5.71875 L 3.265625 -6.53125 C 3.265625 -6.8125 3.125 -6.953125 2.84375 -6.953125 L 2.359375 -6.953125 C 2.078125 -6.953125 1.9375 -6.8125 1.9375 -6.53125 L 1.9375 -5.09375 L 4.40625 -4.28125 C 4.59375 -4.207031 4.6875 -4.082031 4.6875 -3.90625 L 4.6875 -1.5 C 4.6875 -1.007812 4.554688 -0.632812 4.296875 -0.375 C 4.046875 -0.125 3.675781 0 3.1875 0 L 2.015625 0 C 1.535156 0 1.164062 -0.125 0.90625 -0.375 C 0.644531 -0.632812 0.515625 -1.007812 0.515625 -1.5 L 0.515625 -2.59375 C 0.515625 -2.695312 0.570312 -2.75 0.6875 -2.75 L 1.765625 -2.75 C 1.878906 -2.75 1.9375 -2.695312 1.9375 -2.59375 L 1.9375 -1.796875 C 1.9375 -1.515625 2.078125 -1.375 2.359375 -1.375 L 2.84375 -1.375 C 3.125 -1.375 3.265625 -1.515625 3.265625 -1.796875 L 3.265625 -3.171875 L 0.796875 -3.984375 C 0.609375 -4.046875 0.515625 -4.175781 0.515625 -4.375 L 0.515625 -6.828125 C 0.515625 -7.316406 0.644531 -7.6875 0.90625 -7.9375 C 1.164062 -8.195312 1.535156 -8.328125 2.015625 -8.328125 Z M 2.015625 -8.328125 "/></g></g></g><g fill="#ffffff" fill-opacity="1"><g transform="translate(8.94349, 10.958218)"><g><path d="M 0.484375 -8.328125 L 4.3125 -8.328125 C 4.414062 -8.328125 4.46875 -8.269531 4.46875 -8.15625 L 4.46875 -7.125 C 4.46875 -7.007812 4.414062 -6.953125 4.3125 -6.953125 L 3.09375 -6.953125 L 3.09375 -0.171875 C 3.09375 -0.0546875 3.039062 0 2.9375 0 L 1.859375 0 C 1.742188 0 1.6875 -0.0546875 1.6875 -0.171875 L 1.6875 -6.953125 L 0.484375 -6.953125 C 0.367188 -6.953125 0.3125 -7.007812 0.3125 -7.125 L 0.3125 -8.15625 C 0.3125 -8.269531 0.367188 -8.328125 0.484375 -8.328125 Z M 0.484375 -8.328125 "/></g></g></g><g fill="#ffffff" fill-opacity="1"><g transform="translate(12.188498, 10.958218)"><g><path d="M 0.515625 -0.203125 L 0.515625 -1.171875 C 0.515625 -1.304688 0.585938 -1.375 0.734375 -1.375 L 1.671875 -1.375 C 1.816406 -1.375 1.890625 -1.304688 1.890625 -1.171875 L 1.890625 -0.203125 C 1.890625 -0.0664062 1.816406 0 1.671875 0 L 0.734375 0 C 0.585938 0 0.515625 -0.0664062 0.515625 -0.203125 Z M 0.515625 -0.203125 "/></g></g></g><g fill="#ffffff" fill-opacity="1"><g transform="translate(13.987924, 10.958218)"><g/></g></g><g fill="#ffffff" fill-opacity="1"><g transform="translate(15.985058, 10.958218)"><g><path d="M 4.40625 -3.984375 L 2.078125 -2.734375 C 1.984375 -2.679688 1.9375 -2.597656 1.9375 -2.484375 L 1.9375 -1.578125 C 1.9375 -1.441406 2.003906 -1.375 2.140625 -1.375 L 3.265625 -1.375 L 3.265625 -1.796875 C 3.265625 -1.941406 3.332031 -2.015625 3.46875 -2.015625 L 4.46875 -2.015625 C 4.613281 -2.015625 4.6875 -1.941406 4.6875 -1.796875 L 4.6875 -0.203125 C 4.6875 -0.0664062 4.613281 0 4.46875 0 L 0.734375 0 C 0.585938 0 0.515625 -0.0664062 0.515625 -0.203125 L 0.515625 -3.28125 C 0.515625 -3.375 0.535156 -3.445312 0.578125 -3.5 C 0.617188 -3.5625 0.691406 -3.613281 0.796875 -3.65625 L 3.265625 -5 L 3.265625 -6.53125 C 3.265625 -6.8125 3.125 -6.953125 2.84375 -6.953125 L 2.359375 -6.953125 C 2.078125 -6.953125 1.9375 -6.8125 1.9375 -6.53125 L 1.9375 -5.71875 C 1.9375 -5.613281 1.878906 -5.5625 1.765625 -5.5625 L 0.6875 -5.5625 C 0.570312 -5.5625 0.515625 -5.613281 0.515625 -5.71875 L 0.515625 -6.828125 C 0.515625 -7.316406 0.644531 -7.6875 0.90625 -7.9375 C 1.164062 -8.195312 1.535156 -8.328125 2.015625 -8.328125 L 3.1875 -8.328125 C 3.664062 -8.328125 4.035156 -8.195312 4.296875 -7.9375 C 4.554688 -7.6875 4.6875 -7.316406 4.6875 -6.828125 L 4.6875 -4.375 C 4.6875 -4.269531 4.660156 -4.191406 4.609375 -4.140625 C 4.566406 -4.085938 4.5 -4.035156 4.40625 -3.984375 Z M 4.40625 -3.984375 "/></g></g></g><g fill="#ffffff" fill-opacity="1"><g transform="translate(20.583525, 10.958218)"><g><path d="M 0.515625 -1.5 L 0.515625 -6.828125 C 0.515625 -7.316406 0.644531 -7.6875 0.90625 -7.9375 C 1.164062 -8.195312 1.535156 -8.328125 2.015625 -8.328125 L 3.1875 -8.328125 C 3.675781 -8.328125 4.046875 -8.195312 4.296875 -7.9375 C 4.554688 -7.6875 4.6875 -7.316406 4.6875 -6.828125 L 4.6875 -1.5 C 4.6875 -1.007812 4.554688 -0.632812 4.296875 -0.375 C 4.046875 -0.125 3.675781 0 3.1875 0 L 2.015625 0 C 1.535156 0 1.164062 -0.125 0.90625 -0.375 C 0.644531 -0.632812 0.515625 -1.007812 0.515625 -1.5 Z M 2.328125 -1.34375 L 2.921875 -1.34375 C 3.203125 -1.34375 3.34375 -1.484375 3.34375 -1.765625 L 3.34375 -6.5625 C 3.34375 -6.84375 3.203125 -6.984375 2.921875 -6.984375 L 2.328125 -6.984375 C 2.046875 -6.984375 1.90625 -6.84375 1.90625 -6.5625 L 1.90625 -1.765625 C 1.90625 -1.484375 2.046875 -1.34375 2.328125 -1.34375 Z M 2.328125 -1.34375 "/></g></g></g><g fill="#ffffff" fill-opacity="1"><g transform="translate(25.181991, 10.958218)"><g><path d="M 4.40625 -3.984375 L 2.078125 -2.734375 C 1.984375 -2.679688 1.9375 -2.597656 1.9375 -2.484375 L 1.9375 -1.578125 C 1.9375 -1.441406 2.003906 -1.375 2.140625 -1.375 L 3.265625 -1.375 L 3.265625 -1.796875 C 3.265625 -1.941406 3.332031 -2.015625 3.46875 -2.015625 L 4.46875 -2.015625 C 4.613281 -2.015625 4.6875 -1.941406 4.6875 -1.796875 L 4.6875 -0.203125 C 4.6875 -0.0664062 4.613281 0 4.46875 0 L 0.734375 0 C 0.585938 0 0.515625 -0.0664062 0.515625 -0.203125 L 0.515625 -3.28125 C 0.515625 -3.375 0.535156 -3.445312 0.578125 -3.5 C 0.617188 -3.5625 0.691406 -3.613281 0.796875 -3.65625 L 3.265625 -5 L 3.265625 -6.53125 C 3.265625 -6.8125 3.125 -6.953125 2.84375 -6.953125 L 2.359375 -6.953125 C 2.078125 -6.953125 1.9375 -6.8125 1.9375 -6.53125 L 1.9375 -5.71875 C 1.9375 -5.613281 1.878906 -5.5625 1.765625 -5.5625 L 0.6875 -5.5625 C 0.570312 -5.5625 0.515625 -5.613281 0.515625 -5.71875 L 0.515625 -6.828125 C 0.515625 -7.316406 0.644531 -7.6875 0.90625 -7.9375 C 1.164062 -8.195312 1.535156 -8.328125 2.015625 -8.328125 L 3.1875 -8.328125 C 3.664062 -8.328125 4.035156 -8.195312 4.296875 -7.9375 C 4.554688 -7.6875 4.6875 -7.316406 4.6875 -6.828125 L 4.6875 -4.375 C 4.6875 -4.269531 4.660156 -4.191406 4.609375 -4.140625 C 4.566406 -4.085938 4.5 -4.035156 4.40625 -3.984375 Z M 4.40625 -3.984375 "/></g></g></g><g fill="#ffffff" fill-opacity="1"><g transform="translate(29.780457, 10.958218)"><g><path d="M 0.828125 -8.328125 L 4.375 -8.328125 C 4.507812 -8.328125 4.578125 -8.253906 4.578125 -8.109375 L 4.578125 -7.15625 C 4.578125 -7.019531 4.507812 -6.953125 4.375 -6.953125 L 2.03125 -6.953125 L 2.03125 -5.3125 L 4.5 -4.53125 C 4.625 -4.488281 4.6875 -4.414062 4.6875 -4.3125 L 4.6875 -1.453125 C 4.6875 -0.984375 4.5625 -0.625 4.3125 -0.375 C 4.0625 -0.125 3.695312 0 3.21875 0 L 1.984375 0 C 1.503906 0 1.140625 -0.125 0.890625 -0.375 C 0.640625 -0.625 0.515625 -0.984375 0.515625 -1.453125 L 0.515625 -1.796875 C 0.515625 -1.929688 0.585938 -2 0.734375 -2 L 1.734375 -2 C 1.867188 -2 1.9375 -1.929688 1.9375 -1.796875 L 1.9375 -1.375 L 3.0625 -1.375 C 3.207031 -1.375 3.28125 -1.441406 3.28125 -1.578125 L 3.28125 -3.484375 L 0.796875 -4.265625 C 0.679688 -4.304688 0.625 -4.382812 0.625 -4.5 L 0.625 -8.109375 C 0.625 -8.253906 0.691406 -8.328125 0.828125 -8.328125 Z M 0.828125 -8.328125 "/></g></g></g></g></g></svg>